<?xml version="1.0" encoding="UTF-8"?>
<svg xmlns="http://www.w3.org/2000/svg" xmlns:xlink="http://www.w3.org/1999/xlink" width="52px" height="52px" viewBox="0 0 52 52" version="1.1">
<g id="surface1">
<path style=" stroke:none;fill-rule:nonzero;fill:rgb(0%,49.019608%,72.156863%);fill-opacity:1;" d="M 26 2.964844 C 19.644531 2.964844 13.882812 5.542969 9.714844 9.714844 C 5.542969 13.878906 2.964844 19.640625 2.964844 26.003906 C 2.964844 32.359375 5.542969 38.117188 9.714844 42.28125 C 13.882812 46.449219 19.644531 49.035156 26 49.035156 C 32.363281 49.035156 38.125 46.449219 42.285156 42.28125 C 46.457031 38.117188 49.027344 32.359375 49.027344 26.003906 C 49.027344 19.640625 46.457031 13.878906 42.285156 9.714844 C 38.125 5.542969 32.363281 2.964844 26 2.964844 M 26 0.171875 C 40.261719 0.171875 51.828125 11.738281 51.828125 26.003906 C 51.828125 40.261719 40.261719 51.828125 26 51.828125 C 11.742188 51.828125 0.171875 40.261719 0.171875 26.003906 C 0.171875 11.738281 11.742188 0.171875 26 0.171875 "/>
<path style=" stroke:none;fill-rule:nonzero;fill:rgb(0%,49.019608%,72.156863%);fill-opacity:1;" d="M 13.785156 25.792969 C 13.785156 24.289062 12.789062 23.433594 11.375 23.433594 L 10.507812 23.433594 L 10.507812 28.15625 L 11.347656 28.15625 C 12.664062 28.15625 13.785156 27.441406 13.785156 25.792969 M 29.179688 27.492188 L 22.804688 32.511719 L 16.976562 27.925781 C 16.136719 29.945312 14.105469 31.347656 11.765625 31.347656 L 6.78125 31.347656 L 6.78125 20.238281 L 11.765625 20.238281 C 14.378906 20.238281 16.265625 21.902344 16.976562 23.671875 L 22.804688 19.089844 L 24.960938 20.789062 L 19.621094 24.988281 L 20.648438 25.789062 L 25.988281 21.59375 L 28.148438 23.289062 L 22.808594 27.492188 L 23.832031 28.296875 L 29.179688 24.09375 L 29.179688 20.238281 L 33.054688 20.238281 L 33.054688 28.105469 L 36.917969 28.105469 L 36.917969 31.359375 L 29.179688 31.359375 Z M 41.828125 28.105469 L 45.691406 28.105469 L 45.691406 31.359375 L 37.949219 31.359375 L 37.949219 20.238281 L 41.828125 20.238281 Z M 41.828125 28.105469 "/>
</g>
</svg>
