<?xml version="1.0" encoding="UTF-8"?>
<svg xmlns="http://www.w3.org/2000/svg" xmlns:xlink="http://www.w3.org/1999/xlink" width="52px" height="52px" viewBox="0 0 52 52" version="1.1">
<g id="surface1">
<path style=" stroke:none;fill-rule:nonzero;fill:rgb(76.862745%,3.137255%,30.980392%);fill-opacity:1;" d="M 25.976562 51.96875 C 40.328125 51.96875 51.960938 40.316406 51.960938 25.988281 C 51.960938 11.632812 40.328125 0 25.976562 0 C 11.628906 0 0 11.632812 0 25.988281 C 0 40.316406 11.628906 51.96875 25.976562 51.96875 "/>
<path style=" stroke:none;fill-rule:nonzero;fill:rgb(100%,100%,100%);fill-opacity:1;" d="M 24.929688 14.566406 L 24.929688 37.371094 L 32.167969 37.371094 L 32.167969 35.324219 L 27.023438 35.324219 L 27.023438 14.566406 L 24.929688 14.566406 "/>
<path style=" stroke:none;fill-rule:nonzero;fill:rgb(100%,100%,100%);fill-opacity:1;" d="M 17.675781 20.800781 C 19.390625 20.800781 20.804688 19.410156 20.804688 17.6875 C 20.804688 15.957031 19.390625 14.5625 17.675781 14.5625 C 15.960938 14.5625 14.558594 15.957031 14.558594 17.6875 C 14.558594 19.410156 15.960938 20.800781 17.675781 20.800781 "/>
<path style=" stroke:none;fill-rule:nonzero;fill:rgb(100%,100%,100%);fill-opacity:1;" d="M 27.023438 4.253906 C 26.738281 4.246094 26.246094 4.246094 25.976562 4.246094 C 13.984375 4.246094 4.226562 13.980469 4.226562 25.980469 C 4.226562 31.785156 6.492188 37.253906 10.589844 41.355469 C 14.707031 45.464844 20.152344 47.75 25.976562 47.75 C 31.789062 47.75 37.246094 45.464844 41.359375 41.355469 C 45.453125 37.253906 47.707031 31.785156 47.707031 25.980469 L 47.707031 24.988281 L 32.1875 24.988281 L 32.1875 27.007812 L 45.648438 27.007812 C 45.648438 27.046875 45.640625 27.269531 45.640625 27.316406 C 44.976562 37.582031 36.386719 45.6875 25.976562 45.6875 C 20.71875 45.6875 15.75 43.644531 12.03125 39.933594 C 8.3125 36.210938 6.25 31.25 6.25 25.980469 C 6.25 20.71875 8.3125 15.761719 12.03125 12.042969 C 15.75 8.316406 20.71875 6.261719 25.976562 6.261719 C 26.210938 6.261719 26.765625 6.273438 27.023438 6.28125 L 27.023438 4.253906 "/>
</g>
</svg>
