<?xml version="1.0" encoding="UTF-8"?>
<svg xmlns="http://www.w3.org/2000/svg" xmlns:xlink="http://www.w3.org/1999/xlink" width="52px" height="52px" viewBox="0 0 52 52" version="1.1">
<g id="surface1">
<path style=" stroke:none;fill-rule:nonzero;fill:rgb(100%,41.176471%,0%);fill-opacity:1;" d="M 46.578125 5.433594 C 41.675781 0.546875 34.621094 0 26 0 C 17.367188 0 10.304688 0.550781 5.402344 5.453125 C 0.496094 10.351562 0 17.402344 0 26.023438 C 0 34.648438 0.496094 41.703125 5.402344 46.601562 C 10.304688 51.503906 17.371094 52 26 52 C 34.628906 52 41.691406 51.503906 46.597656 46.601562 C 51.5 41.703125 52 34.648438 52 26.023438 C 52 17.394531 51.496094 10.332031 46.578125 5.433594 Z M 46.578125 5.433594 "/>
<path style=" stroke:none;fill-rule:nonzero;fill:rgb(100%,100%,100%);fill-opacity:1;" d="M 41.085938 16.109375 C 41.265625 16.109375 41.414062 16.253906 41.414062 16.429688 L 41.414062 35.664062 C 41.414062 35.839844 41.265625 35.984375 41.085938 35.984375 L 36.875 35.984375 C 36.691406 35.984375 36.546875 35.839844 36.546875 35.664062 L 36.546875 16.429688 C 36.546875 16.253906 36.691406 16.109375 36.875 16.109375 Z M 22.796875 16.109375 C 25.976562 16.109375 29.300781 16.253906 30.941406 17.894531 C 32.554688 19.507812 32.726562 22.722656 32.734375 25.84375 L 32.734375 35.664062 C 32.734375 35.839844 32.585938 35.984375 32.40625 35.984375 L 28.195312 35.984375 C 28.011719 35.984375 27.867188 35.839844 27.867188 35.664062 L 27.867188 25.675781 C 27.859375 23.933594 27.761719 22.140625 26.863281 21.238281 C 26.089844 20.464844 24.644531 20.285156 23.140625 20.25 L 15.503906 20.25 C 15.324219 20.25 15.179688 20.394531 15.179688 20.566406 L 15.179688 35.664062 C 15.179688 35.839844 15.03125 35.984375 14.847656 35.984375 L 10.632812 35.984375 C 10.453125 35.984375 10.308594 35.839844 10.308594 35.664062 L 10.308594 16.429688 C 10.308594 16.253906 10.453125 16.109375 10.632812 16.109375 Z M 23.742188 23.769531 C 23.921875 23.769531 24.066406 23.914062 24.066406 24.089844 L 24.066406 35.664062 C 24.066406 35.839844 23.921875 35.984375 23.742188 35.984375 L 19.316406 35.984375 C 19.132812 35.984375 18.988281 35.839844 18.988281 35.664062 L 18.988281 24.089844 C 18.988281 23.914062 19.132812 23.769531 19.316406 23.769531 Z M 23.742188 23.769531 "/>
</g>
</svg>
